<?xml version="1.0" encoding="UTF-8"?>
<!DOCTYPE svg PUBLIC "-//W3C//DTD SVG 1.1//EN" "http://www.w3.org/Graphics/SVG/1.1/DTD/svg11.dtd">
<svg xmlns="http://www.w3.org/2000/svg" version="1.1" width="540px" height="434px" style="shape-rendering:geometricPrecision; text-rendering:geometricPrecision; image-rendering:optimizeQuality; fill-rule:evenodd; clip-rule:evenodd" xmlns:xlink="http://www.w3.org/1999/xlink">
<g><path style="opacity:1" fill="#f3a2b2" d="M 271.5,30.5 C 273.584,34.4207 276.584,37.5873 280.5,40C 282.929,40.7033 285.262,40.5366 287.5,39.5C 285.004,41.3238 282.004,42.3238 278.5,42.5C 276.431,42.1758 276.098,41.3425 277.5,40C 275.74,37.5175 273.573,37.0175 271,38.5C 270.616,40.1966 270.782,41.8632 271.5,43.5C 269.009,42.7252 266.343,42.7252 263.5,43.5C 260.507,44.8154 258.174,46.8154 256.5,49.5C 256.807,43.1925 260.141,39.8592 266.5,39.5C 270.261,36.8219 269.595,35.1552 264.5,34.5C 261.724,34.8047 259.224,35.8047 257,37.5C 256.601,37.2716 256.435,36.9382 256.5,36.5C 260.117,31.5465 265.117,29.5465 271.5,30.5 Z"/></g>
<g><path style="opacity:1" fill="#f99caf" d="M 287.5,39.5 C 289.028,38.6908 290.694,38.0241 292.5,37.5C 297.442,39.7693 302.775,41.2693 308.5,42C 311.217,43.8198 313.717,45.9865 316,48.5C 316.483,49.448 316.649,50.448 316.5,51.5C 318.92,51.2924 321.253,51.6258 323.5,52.5C 324.711,53.2739 324.711,54.1072 323.5,55C 324.931,55.4652 326.097,56.2986 327,57.5C 326.754,60.875 326.587,64.2083 326.5,67.5C 324.589,67.5743 323.422,68.5743 323,70.5C 321.519,77.1908 321.019,83.8575 321.5,90.5C 319.919,92.1417 319.253,94.1417 319.5,96.5C 317.127,98.5792 315.794,101.246 315.5,104.5C 314.041,104.567 312.708,104.234 311.5,103.5C 311.489,101.983 310.823,100.816 309.5,100C 311.192,98.5993 311.859,96.7659 311.5,94.5C 309.167,94.5 306.833,94.5 304.5,94.5C 304.542,96.8489 303.375,98.1822 301,98.5C 299.403,97.1153 297.57,96.4486 295.5,96.5C 294.323,101.028 292.989,105.528 291.5,110C 291.808,111.459 292.475,112.626 293.5,113.5C 293.842,114.338 294.508,114.672 295.5,114.5C 295.269,117.9 293.436,119.9 290,120.5C 288.371,122.737 286.871,125.071 285.5,127.5C 285.167,127.5 284.833,127.5 284.5,127.5C 282.906,127.92 281.406,128.586 280,129.5C 276.144,127.652 275.644,125.152 278.5,122C 277.833,121.667 277.167,121.333 276.5,121C 277.949,119.883 279.616,119.216 281.5,119C 279.866,118.506 278.199,118.34 276.5,118.5C 277.332,116.001 277.665,113.668 277.5,111.5C 278.968,107.292 279.968,102.958 280.5,98.5C 279.724,95.4788 278.891,92.4788 278,89.5C 277.623,88.0577 276.79,87.0577 275.5,86.5C 275.405,84.2143 274.738,82.2143 273.5,80.5C 277.718,77.6441 280.051,78.9774 280.5,84.5C 282.973,84.264 284.64,82.9307 285.5,80.5C 283.862,79.0416 282.195,78.7083 280.5,79.5C 279.833,74.5 279.167,69.5 278.5,64.5C 275.179,63.7402 271.846,63.0736 268.5,62.5C 268.171,58.829 268.171,55.1624 268.5,51.5C 271.753,53.7344 275.42,54.9011 279.5,55C 290.186,55.6786 300.852,55.512 311.5,54.5C 311.5,53.5 311.5,52.5 311.5,51.5C 309.208,51.7564 307.041,51.4231 305,50.5C 304.308,51.0253 303.808,51.6919 303.5,52.5C 298.208,53.4948 292.875,53.8282 287.5,53.5C 286.832,48.8394 288.832,46.8394 293.5,47.5C 293.621,44.4591 292.121,42.7924 289,42.5C 287.48,43.697 286.313,45.197 285.5,47C 282.216,47.9808 279.549,47.1475 277.5,44.5C 275.547,43.8444 273.547,43.5111 271.5,43.5C 270.782,41.8632 270.616,40.1966 271,38.5C 273.573,37.0175 275.74,37.5175 277.5,40C 276.098,41.3425 276.431,42.1758 278.5,42.5C 282.004,42.3238 285.004,41.3238 287.5,39.5 Z"/></g>
<g><path style="opacity:1" fill="#f89cb0" d="M 256.5,49.5 C 255.732,48.7375 255.232,47.7375 255,46.5C 251.155,51.3605 250.321,56.5272 252.5,62C 252.025,63.7633 251.358,65.43 250.5,67C 252.81,69.6641 253.144,72.6641 251.5,76C 251.954,77.6217 252.954,78.7884 254.5,79.5C 255.168,81.9688 255.835,84.3021 256.5,86.5C 256.666,90.8461 256.499,95.1794 256,99.5C 255.099,96.9293 253.766,94.596 252,92.5C 251.536,93.0944 251.369,93.7611 251.5,94.5C 250.797,92.3713 249.797,90.3713 248.5,88.5C 248.366,86.6331 248.699,84.6331 249.5,82.5C 247.238,76.3714 245.571,70.0381 244.5,63.5C 243.167,63.5 241.833,63.5 240.5,63.5C 240.254,55.8603 241.421,55.1937 244,61.5C 245.202,59.3225 245.702,56.9892 245.5,54.5C 246.219,52.9087 247.219,51.4087 248.5,50C 246.94,47.8853 246.607,45.7186 247.5,43.5C 248.752,38.9956 251.752,36.6623 256.5,36.5C 256.435,36.9382 256.601,37.2716 257,37.5C 259.224,35.8047 261.724,34.8047 264.5,34.5C 269.595,35.1552 270.261,36.8219 266.5,39.5C 260.141,39.8592 256.807,43.1925 256.5,49.5 Z"/></g>
<g><path style="opacity:1" fill="#f8a1af" d="M 268.5,51.5 C 268.5,50.1667 268.5,48.8333 268.5,47.5C 269.5,47.5 270.5,47.5 271.5,47.5C 271.5,46.1667 271.5,44.8333 271.5,43.5C 273.547,43.5111 275.547,43.8444 277.5,44.5C 279.549,47.1475 282.216,47.9808 285.5,47C 286.313,45.197 287.48,43.697 289,42.5C 292.121,42.7924 293.621,44.4591 293.5,47.5C 288.832,46.8394 286.832,48.8394 287.5,53.5C 292.875,53.8282 298.208,53.4948 303.5,52.5C 303.808,51.6919 304.308,51.0253 305,50.5C 307.041,51.4231 309.208,51.7564 311.5,51.5C 311.5,52.5 311.5,53.5 311.5,54.5C 300.852,55.512 290.186,55.6786 279.5,55C 275.42,54.9011 271.753,53.7344 268.5,51.5 Z"/></g>
<g><path style="opacity:1" fill="#f99caf" d="M 239.5,95.5 C 238.325,95.719 237.325,95.3857 236.5,94.5C 238.313,91.2912 239.313,87.7912 239.5,84C 238.208,79.4912 237.208,74.9912 236.5,70.5C 237.374,68.2534 237.708,65.9201 237.5,63.5C 238.222,63.0825 238.722,62.4158 239,61.5C 241.304,70.4563 243.471,79.4563 245.5,88.5C 244.151,90.1697 242.985,91.8364 242,93.5C 241.667,92.8333 241.333,92.1667 241,91.5C 240.209,92.745 239.709,94.0783 239.5,95.5 Z"/></g>
<g><path style="opacity:1" fill="#f39fb1" d="M 268.5,51.5 C 268.171,55.1624 268.171,58.829 268.5,62.5C 269.029,64.5834 270.029,66.4167 271.5,68C 272.549,68.4922 273.549,68.3256 274.5,67.5C 277.462,70.3879 276.795,71.7213 272.5,71.5C 272.19,74.7131 272.523,77.7131 273.5,80.5C 274.738,82.2143 275.405,84.2143 275.5,86.5C 271.22,82.0795 267.886,77.0795 265.5,71.5C 265.5,65.5 265.5,59.5 265.5,53.5C 266.778,53.2178 267.778,52.5511 268.5,51.5 Z"/></g>
<g><path style="opacity:1" fill="#f8a2af" d="M 245.5,54.5 C 245.702,56.9892 245.202,59.3225 244,61.5C 241.421,55.1937 240.254,55.8603 240.5,63.5C 241.833,63.5 243.167,63.5 244.5,63.5C 245.571,70.0381 247.238,76.3714 249.5,82.5C 248.699,84.6331 248.366,86.6331 248.5,88.5C 247.25,88.5774 246.417,89.244 246,90.5C 245.506,92.1341 245.34,93.8008 245.5,95.5C 243.822,100.568 243.156,105.902 243.5,111.5C 243.167,111.5 242.833,111.5 242.5,111.5C 242.158,110.662 241.492,110.328 240.5,110.5C 240.413,107.402 240.913,107.068 242,109.5C 242.667,107.833 242.667,106.167 242,104.5C 241.333,105.167 240.667,105.833 240,106.5C 239.505,104.527 239.338,102.527 239.5,100.5C 239.5,98.8333 239.5,97.1667 239.5,95.5C 239.709,94.0783 240.209,92.745 241,91.5C 241.333,92.1667 241.667,92.8333 242,93.5C 242.985,91.8364 244.151,90.1697 245.5,88.5C 243.471,79.4563 241.304,70.4563 239,61.5C 238.722,62.4158 238.222,63.0825 237.5,63.5C 237.083,60.9208 237.75,58.7542 239.5,57C 239.167,56.6667 238.833,56.3333 238.5,56C 239.938,55.7811 241.271,55.2811 242.5,54.5C 240.307,52.618 240.973,52.118 244.5,53C 245.056,53.3826 245.389,53.8826 245.5,54.5 Z"/></g>
<g><path style="opacity:1" fill="#f4a0b2" d="M 247.5,43.5 C 246.607,45.7186 246.94,47.8853 248.5,50C 247.219,51.4087 246.219,52.9087 245.5,54.5C 245.389,53.8826 245.056,53.3826 244.5,53C 240.973,52.118 240.307,52.618 242.5,54.5C 241.271,55.2811 239.938,55.7811 238.5,56C 238.833,56.3333 239.167,56.6667 239.5,57C 237.75,58.7542 237.083,60.9208 237.5,63.5C 237.708,65.9201 237.374,68.2534 236.5,70.5C 237.208,74.9912 238.208,79.4912 239.5,84C 239.313,87.7912 238.313,91.2912 236.5,94.5C 237.325,95.3857 238.325,95.719 239.5,95.5C 239.5,97.1667 239.5,98.8333 239.5,100.5C 238.85,100.196 238.183,99.8627 237.5,99.5C 236.158,103.248 236.325,106.915 238,110.5C 238.977,111.774 239.811,111.774 240.5,110.5C 241.492,110.328 242.158,110.662 242.5,111.5C 241.12,116.381 238.12,119.881 233.5,122C 237.122,125.442 240.455,125.275 243.5,121.5C 249.188,118.521 250.521,119.854 247.5,125.5C 246.713,127.104 245.38,127.771 243.5,127.5C 236.126,127.022 229.126,128.022 222.5,130.5C 218.297,130.924 214.297,130.424 210.5,129C 212.167,128.667 213.833,128.333 215.5,128C 217.806,125.861 220.473,124.361 223.5,123.5C 224.174,121.805 224.841,120.138 225.5,118.5C 229.573,117.413 231.239,114.746 230.5,110.5C 231.682,108.9 233.015,108.567 234.5,109.5C 235.823,99.3411 235.823,89.3411 234.5,79.5C 233.7,71.2909 233.867,62.9576 235,54.5C 235.599,51.7458 237.099,49.7458 239.5,48.5C 239.5,47.8333 239.833,47.5 240.5,47.5C 242.833,46.1667 245.167,44.8333 247.5,43.5 Z"/></g>
<g><path style="opacity:1" fill="#f7a1b2" d="M 268.5,51.5 C 268.171,55.1624 268.171,58.829 268.5,62.5C 271.846,63.0736 275.179,63.7402 278.5,64.5C 279.167,69.5 279.833,74.5 280.5,79.5C 282.195,78.7083 283.862,79.0416 285.5,80.5C 284.64,82.9307 282.973,84.264 280.5,84.5C 280.051,78.9774 277.718,77.6441 273.5,80.5C 272.523,77.7131 272.19,74.7131 272.5,71.5C 276.795,71.7213 277.462,70.3879 274.5,67.5C 273.549,68.3256 272.549,68.4922 271.5,68C 270.029,66.4167 269.029,64.5834 268.5,62.5 Z"/></g>
<g><path style="opacity:1" fill="#f99caf" d="M 322.5,133.5 C 322.554,135.632 323.554,136.965 325.5,137.5C 326.607,142.081 326.773,146.748 326,151.5C 324.097,154.171 323.264,157.171 323.5,160.5C 322.863,163.456 322.363,166.456 322,169.5C 321.488,163.443 320.655,157.443 319.5,151.5C 318.5,151.5 317.5,151.5 316.5,151.5C 316.5,148.833 316.5,146.167 316.5,143.5C 312.486,143.334 308.486,143.501 304.5,144C 302.236,152.158 303.569,159.658 308.5,166.5C 307.262,169.166 307.262,171.832 308.5,174.5C 311.003,178.851 313.003,183.518 314.5,188.5C 313.992,191.534 313.325,194.534 312.5,197.5C 313.167,200.167 313.833,202.833 314.5,205.5C 312.491,210.943 311.991,216.609 313,222.5C 314,223.833 315,223.833 316,222.5C 316.658,220.2 317.158,217.867 317.5,215.5C 315.503,211.481 316.17,208.148 319.5,205.5C 317.961,202.512 316.961,199.346 316.5,196C 317.25,188.95 317.417,182.117 317,175.5C 317.333,175.167 317.667,174.833 318,174.5C 319.978,176.972 321.478,179.639 322.5,182.5C 322.468,187.747 322.135,192.747 321.5,197.5C 323.557,201.62 323.557,205.62 321.5,209.5C 321.608,210.442 321.941,211.275 322.5,212C 319.191,215.077 318.691,218.577 321,222.5C 321.333,220.167 321.667,217.833 322,215.5C 322.71,214.027 323.876,213.36 325.5,213.5C 327.441,228.636 327.774,243.802 326.5,259C 326.601,262.798 327.601,266.298 329.5,269.5C 329.32,270.554 328.987,271.554 328.5,272.5C 330.617,275.85 331.951,279.516 332.5,283.5C 332.406,287.594 330.406,290.261 326.5,291.5C 324.604,292.466 322.604,292.799 320.5,292.5C 320.5,291.167 320.5,289.833 320.5,288.5C 319.105,285.688 316.771,284.354 313.5,284.5C 313.167,283.833 312.833,283.167 312.5,282.5C 315.5,281.167 318.5,279.833 321.5,278.5C 320.519,273.871 320.352,269.204 321,264.5C 322.518,264.943 323.685,264.276 324.5,262.5C 323.726,261.289 322.893,261.289 322,262.5C 319.594,256.436 317.927,250.103 317,243.5C 316.333,242.167 315.667,242.167 315,243.5C 313.097,238.08 311.264,232.746 309.5,227.5C 308.532,225.393 308.198,223.059 308.5,220.5C 308.247,214.127 308.581,207.794 309.5,201.5C 309.009,198.326 308.343,195.326 307.5,192.5C 306.815,190.586 306.315,188.586 306,186.5C 305.623,185.058 304.79,184.058 303.5,183.5C 303.5,182.833 303.5,182.167 303.5,181.5C 302.392,175.584 301.558,169.584 301,163.5C 300.667,162.833 300.333,162.167 300,161.5C 298.628,162.91 297.795,164.577 297.5,166.5C 296.89,167.391 296.557,168.391 296.5,169.5C 294.933,170.681 294.099,172.347 294,174.5C 293.044,173.421 292.211,172.255 291.5,171C 291.768,168.861 292.435,166.528 293.5,164C 293.397,162.439 293.063,160.939 292.5,159.5C 291.998,158.479 291.332,158.312 290.5,159C 289.864,163.231 288.864,167.397 287.5,171.5C 287.865,174.362 289.531,175.862 292.5,176C 290.078,181.799 286.078,185.133 280.5,186C 278.978,188.305 276.978,189.805 274.5,190.5C 274.167,193.167 273.833,195.833 273.5,198.5C 272.525,202.503 270.692,206.17 268,209.5C 266.982,208.294 266.482,208.627 266.5,210.5C 267.608,214.106 268.941,217.606 270.5,221C 270.167,221.333 269.833,221.667 269.5,222C 270.549,222.492 271.549,222.326 272.5,221.5C 274.234,219.766 275.568,217.766 276.5,215.5C 277.182,216.243 277.849,216.909 278.5,217.5C 277.907,220.596 278.907,222.929 281.5,224.5C 280.754,225.736 280.421,227.07 280.5,228.5C 277.751,228.726 275.084,228.393 272.5,227.5C 270.506,230.568 267.839,231.235 264.5,229.5C 262.739,230.035 261.406,231.035 260.5,232.5C 258.769,234.139 256.935,235.806 255,237.5C 254.399,238.965 254.899,239.965 256.5,240.5C 258.5,239.167 260.5,239.167 262.5,240.5C 265.755,239.045 268.755,237.378 271.5,235.5C 271.611,234.883 271.944,234.383 272.5,234C 277.489,233.501 282.489,233.334 287.5,233.5C 287.66,235.153 288.326,236.486 289.5,237.5C 293.939,240.992 298.272,244.659 302.5,248.5C 302.747,251.505 301.747,254.005 299.5,256C 300.676,257.674 302.01,259.174 303.5,260.5C 302.311,261.429 300.978,261.762 299.5,261.5C 294.552,260.441 289.552,260.274 284.5,261C 279.717,262.942 277.717,266.442 278.5,271.5C 276.821,271.285 275.821,271.952 275.5,273.5C 275.5,277.5 275.5,281.5 275.5,285.5C 274.662,285.842 274.328,286.508 274.5,287.5C 273.2,290.024 273.2,292.691 274.5,295.5C 275.293,295.069 276.127,294.735 277,294.5C 278.623,295.921 279.79,297.588 280.5,299.5C 280.5,300.5 280.5,301.5 280.5,302.5C 279.448,302.649 278.448,302.483 277.5,302C 276.253,300.054 274.92,298.22 273.5,296.5C 272.406,297.868 272.74,299.035 274.5,300C 273.262,299.923 272.262,300.089 271.5,300.5C 273.562,302.092 273.895,303.925 272.5,306C 274.108,306.658 275.275,306.158 276,304.5C 279.303,305.131 282.47,306.131 285.5,307.5C 288.167,306.167 290.833,306.167 293.5,307.5C 296.865,306.996 300.198,306.329 303.5,305.5C 303.863,304.817 304.196,304.15 304.5,303.5C 305.434,304.568 305.768,305.901 305.5,307.5C 302.798,309.086 299.798,310.086 296.5,310.5C 292.218,309.862 287.884,309.529 283.5,309.5C 276.359,309.842 269.359,310.675 262.5,312C 262.489,308.453 262.155,304.953 261.5,301.5C 263.748,300.676 263.914,299.676 262,298.5C 261.667,298.833 261.333,299.167 261,299.5C 260.316,298.216 260.483,297.049 261.5,296C 260.552,295.517 259.552,295.351 258.5,295.5C 258.5,295.167 258.5,294.833 258.5,294.5C 258.15,291.278 257.483,288.112 256.5,285C 256.667,284.167 256.833,283.333 257,282.5C 258.661,287.573 259.494,287.573 259.5,282.5C 258.989,280.122 258.322,277.788 257.5,275.5C 257.621,274.106 257.954,272.772 258.5,271.5C 256.363,270.262 255.029,268.429 254.5,266C 255.512,263.14 255.512,259.973 254.5,256.5C 252.902,255.515 251.235,255.349 249.5,256C 250.308,257.706 251.641,258.539 253.5,258.5C 253.744,262.856 252.744,266.856 250.5,270.5C 251.127,271.417 251.461,272.417 251.5,273.5C 250.883,273.611 250.383,273.944 250,274.5C 247.443,270.055 245.443,265.389 244,260.5C 243.667,261.167 243.333,261.833 243,262.5C 241.087,259.592 238.754,258.926 236,260.5C 235.583,259.244 234.75,258.577 233.5,258.5C 233.69,256.358 233.856,254.025 234,251.5C 234.667,250.167 235.333,250.167 236,251.5C 240.188,240.792 241.521,229.459 240,217.5C 239.722,216.584 239.222,215.918 238.5,215.5C 238.5,214.5 238.5,213.5 238.5,212.5C 238.577,208.785 238.244,205.119 237.5,201.5C 237.5,200.5 237.5,199.5 237.5,198.5C 238.822,198.67 239.989,198.337 241,197.5C 241.192,195.423 241.692,193.423 242.5,191.5C 243.228,194.212 244.061,196.879 245,199.5C 248.149,197.638 251.649,196.971 255.5,197.5C 255.261,203.565 255.761,209.565 257,215.5C 258.936,213.192 259.769,210.525 259.5,207.5C 260.833,207.5 262.167,207.5 263.5,207.5C 263.351,206.448 263.517,205.448 264,204.5C 264.451,206.929 265.285,207.096 266.5,205C 264.485,203.445 264.152,201.611 265.5,199.5C 266.167,200.5 266.833,201.5 267.5,202.5C 268.489,198.893 268.823,195.226 268.5,191.5C 264.167,191.5 259.833,191.5 255.5,191.5C 255.5,186.167 255.5,180.833 255.5,175.5C 251.5,175.5 247.5,175.5 243.5,175.5C 243.5,178.167 243.5,180.833 243.5,183.5C 242.5,183.5 241.5,183.5 240.5,183.5C 240.666,179.154 240.499,174.821 240,170.5C 239.259,171.641 238.425,171.641 237.5,170.5C 236.786,173.027 236.12,175.527 235.5,178C 236.685,179.353 238.019,180.52 239.5,181.5C 238.927,183.16 238.927,184.994 239.5,187C 239.167,188.167 238.833,189.333 238.5,190.5C 237.158,189.098 236.324,189.431 236,191.5C 235.497,186.81 234.83,182.143 234,177.5C 233.722,176.584 233.222,175.918 232.5,175.5C 231.749,170.005 230.416,164.672 228.5,159.5C 229.367,155.087 231.7,151.753 235.5,149.5C 236.825,150.953 237.658,150.619 238,148.5C 240.418,150.284 240.751,152.617 239,155.5C 236.942,157.906 234.775,160.073 232.5,162C 233.048,164.27 234.214,166.103 236,167.5C 237.958,164.415 239.625,161.082 241,157.5C 243.667,158.833 246.333,158.833 249,157.5C 249.519,158.516 250.353,159.182 251.5,159.5C 257.386,155.487 263.552,154.82 270,157.5C 272.147,156.404 272.647,154.904 271.5,153C 268.183,152.502 264.85,152.335 261.5,152.5C 261.5,151.167 261.5,149.833 261.5,148.5C 264.518,148.665 267.518,148.498 270.5,148C 271.337,146.989 271.67,145.822 271.5,144.5C 275.618,143.697 278.952,141.697 281.5,138.5C 282.167,138.5 282.833,138.5 283.5,138.5C 284.993,139.445 286.493,140.445 288,141.5C 290.533,140.01 292.367,140.677 293.5,143.5C 295.953,141.08 298.953,139.914 302.5,140C 305.191,137.508 304.691,135.675 301,134.5C 299.701,135.98 298.034,136.646 296,136.5C 292.559,137.06 291.226,135.727 292,132.5C 294.158,131.95 294.658,130.95 293.5,129.5C 295.144,129.714 296.644,129.38 298,128.5C 299.329,129.494 300.662,130.494 302,131.5C 305.213,130.031 308.547,129.031 312,128.5C 314.027,128.986 316.193,128.986 318.5,128.5C 318.682,130.591 318.348,132.591 317.5,134.5C 318.002,135.521 318.668,135.688 319.5,135C 319.93,134.08 320.264,133.247 320.5,132.5C 321.183,132.863 321.85,133.196 322.5,133.5 Z"/></g>
<g><path style="opacity:1" fill="#f9a1af" d="M 323.5,160.5 C 323.975,165.454 323.975,170.454 323.5,175.5C 322.532,177.607 322.198,179.941 322.5,182.5C 321.478,179.639 319.978,176.972 318,174.5C 317.667,174.833 317.333,175.167 317,175.5C 317.417,182.117 317.25,188.95 316.5,196C 316.961,199.346 317.961,202.512 319.5,205.5C 316.17,208.148 315.503,211.481 317.5,215.5C 317.158,217.867 316.658,220.2 316,222.5C 315,223.833 314,223.833 313,222.5C 311.991,216.609 312.491,210.943 314.5,205.5C 313.833,202.833 313.167,200.167 312.5,197.5C 313.325,194.534 313.992,191.534 314.5,188.5C 313.003,183.518 311.003,178.851 308.5,174.5C 307.262,171.832 307.262,169.166 308.5,166.5C 303.569,159.658 302.236,152.158 304.5,144C 308.486,143.501 312.486,143.334 316.5,143.5C 316.5,146.167 316.5,148.833 316.5,151.5C 317.5,151.5 318.5,151.5 319.5,151.5C 320.655,157.443 321.488,163.443 322,169.5C 322.363,166.456 322.863,163.456 323.5,160.5 Z"/></g>
<g><path style="opacity:1" fill="#f8f8f8" d="M 306.5,197.5 C 306.5,200.833 306.5,204.167 306.5,207.5C 305.078,207.75 304.078,208.583 303.5,210C 304.758,216.062 305.591,222.229 306,228.5C 306.627,232.889 308.127,236.889 310.5,240.5C 310.789,243.649 310.289,246.649 309,249.5C 306.805,246.474 305.305,243.141 304.5,239.5C 303.817,239.863 303.15,240.196 302.5,240.5C 301.017,238.906 299.517,237.24 298,235.5C 293.375,235.901 290.708,233.568 290,228.5C 289.329,227.748 288.496,227.414 287.5,227.5C 285.832,225.66 284.332,223.66 283,221.5C 281.696,215.577 281.196,209.577 281.5,203.5C 281.674,201.139 282.007,198.806 282.5,196.5C 284.653,194.206 286.32,191.54 287.5,188.5C 288.939,186.64 290.605,184.973 292.5,183.5C 294.474,181.572 295.974,179.239 297,176.5C 298.551,179.983 300.551,183.649 303,187.5C 303.179,190.553 303.679,193.553 304.5,196.5C 305.183,196.863 305.85,197.196 306.5,197.5 Z"/></g>
<g><path style="opacity:1" fill="#f8f6f7" d="M 270.5,85.5 C 271.833,87.1667 273.167,88.8333 274.5,90.5C 275.229,95.1304 275.563,99.7971 275.5,104.5C 274.368,108.562 273.035,112.562 271.5,116.5C 270.053,118.403 268.386,120.07 266.5,121.5C 265.325,121.281 264.325,121.614 263.5,122.5C 262.974,124.23 261.974,125.564 260.5,126.5C 259.913,125.767 259.913,124.767 260.5,123.5C 261.476,122.185 262.476,120.852 263.5,119.5C 263,119.167 262.5,118.833 262,118.5C 259.968,120.368 257.801,122.035 255.5,123.5C 254.167,123.5 253.5,122.833 253.5,121.5C 254.942,120.18 255.608,118.514 255.5,116.5C 256.065,114.58 257.065,112.913 258.5,111.5C 259.117,111.389 259.617,111.056 260,110.5C 260.501,103.484 261.168,96.4841 262,89.5C 262.198,91.3817 262.698,93.0484 263.5,94.5C 263.5,94.8333 263.5,95.1667 263.5,95.5C 263.238,96.9778 263.571,98.3112 264.5,99.5C 266.349,97.8105 267.349,95.6438 267.5,93C 266.668,90.5217 266.501,88.0217 267,85.5C 267.986,84.8288 269.153,84.8288 270.5,85.5 Z"/></g>
<g><path style="opacity:1" fill="#f8f6f4" d="M 266.5,47.5 C 266.5,47.8333 266.5,48.1667 266.5,48.5C 265.206,49.2899 264.039,50.2899 263,51.5C 262.699,54.9801 261.865,58.3134 260.5,61.5C 259.67,58.5059 258.336,55.8393 256.5,53.5C 256.5,53.1667 256.5,52.8333 256.5,52.5C 257.879,49.6141 259.879,47.1141 262.5,45C 264.167,44.3333 265.833,44.3333 267.5,45C 266.748,45.6708 266.414,46.5041 266.5,47.5 Z"/></g>
<g><path style="opacity:1" fill="#f99caf" d="M 233.5,258.5 C 234.225,260.785 235.558,262.618 237.5,264C 237.043,264.414 236.709,264.914 236.5,265.5C 237.447,267.059 238.113,268.726 238.5,270.5C 236.526,275.374 237.526,279.374 241.5,282.5C 242.124,284.754 243.457,286.421 245.5,287.5C 245.5,287.833 245.5,288.167 245.5,288.5C 244.948,294.781 245.948,300.781 248.5,306.5C 248.392,307.442 248.059,308.275 247.5,309C 244.972,308.895 242.638,309.062 240.5,309.5C 234.158,309.666 227.825,309.5 221.5,309C 219.598,307.606 219.265,305.773 220.5,303.5C 219.5,303.5 218.5,303.5 217.5,303.5C 217.71,295.162 216.376,294.662 213.5,302C 214.551,303.385 215.884,304.385 217.5,305C 216.869,307.099 215.869,308.932 214.5,310.5C 213.5,310.5 212.5,310.5 211.5,310.5C 211.334,305.821 211.501,301.155 212,296.5C 213.653,292.224 215.153,287.891 216.5,283.5C 216.5,282.167 216.5,280.833 216.5,279.5C 217.167,279.5 217.5,279.167 217.5,278.5C 219.39,278.703 220.89,278.037 222,276.5C 224.298,271.783 226.131,266.783 227.5,261.5C 229.745,260.904 231.745,259.904 233.5,258.5 Z"/></g>
<g><path style="opacity:1" fill="#f6a1ae" d="M 233.5,266.5 C 234.649,266.791 235.316,267.624 235.5,269C 235.037,272.54 234.37,276.04 233.5,279.5C 232.833,277.167 232.167,274.833 231.5,272.5C 231.167,273 230.833,273.5 230.5,274C 231.412,278.446 231.745,282.946 231.5,287.5C 228.518,287.827 225.685,287.827 223,287.5C 223.993,290.531 222.993,292.864 220,294.5C 219.075,293.953 218.242,293.287 217.5,292.5C 218.747,290.958 218.747,289.458 217.5,288C 219.384,287.784 221.051,287.117 222.5,286C 221.542,284.853 221.875,283.853 223.5,283C 223.384,281.732 223.051,280.398 222.5,279C 223.12,276.527 223.786,274.027 224.5,271.5C 225.167,274.167 225.833,276.833 226.5,279.5C 227.865,276.313 228.699,272.98 229,269.5C 230.409,268.219 231.909,267.219 233.5,266.5 Z"/></g>
<g><path style="opacity:1" fill="#f79cb0" d="M 232.5,217.5 C 232.268,222.99 231.268,228.324 229.5,233.5C 228.12,234.706 226.953,234.373 226,232.5C 225.911,228.972 225.244,225.638 224,222.5C 223.811,227.251 223.145,231.917 222,236.5C 221.667,235.5 221.333,234.5 221,233.5C 220.833,234.167 220.667,234.833 220.5,235.5C 221.656,238.06 221.656,240.56 220.5,243C 221.167,243.333 221.833,243.667 222.5,244C 221.756,245.815 221.089,247.648 220.5,249.5C 219.781,251.091 218.781,252.591 217.5,254C 217.833,254.333 218.167,254.667 218.5,255C 216.899,255.273 215.399,255.773 214,256.5C 215.464,260.088 215.964,263.754 215.5,267.5C 214.178,267.33 213.011,267.663 212,268.5C 211.5,268 211,267.5 210.5,267C 210.529,262.958 211.029,258.792 212,254.5C 212.26,252.382 213.26,250.716 215,249.5C 215.494,247.866 215.66,246.199 215.5,244.5C 215.89,241.161 216.39,237.827 217,234.5C 220.415,225.791 223.749,217.124 227,208.5C 228.011,207.663 229.178,207.33 230.5,207.5C 230.899,211.011 231.566,214.344 232.5,217.5 Z"/></g>
<g><path style="opacity:1" fill="#f8f8f8" d="M 234.5,244.5 C 233.227,246.713 232.227,249.046 231.5,251.5C 231.5,251.833 231.5,252.167 231.5,252.5C 227.821,254.842 225.821,258.175 225.5,262.5C 222.22,264.936 220.22,268.269 219.5,272.5C 217.182,274.185 216.182,276.519 216.5,279.5C 215.326,280.514 214.66,281.847 214.5,283.5C 213.5,283.5 212.5,283.5 211.5,283.5C 211.5,282.5 211.5,281.5 211.5,280.5C 211.629,278.784 211.962,277.117 212.5,275.5C 213.801,272.977 214.801,270.31 215.5,267.5C 217.752,263.999 219.752,260.332 221.5,256.5C 223.229,255.883 224.729,254.883 226,253.5C 229.891,247.05 231.725,240.384 231.5,233.5C 233.945,231.914 235.445,229.581 236,226.5C 236.667,229.833 236.667,233.167 236,236.5C 235.487,238.521 234.32,240.021 232.5,241C 233.973,241.71 234.64,242.876 234.5,244.5 Z"/></g>
<g><path style="opacity:1" fill="#f79db4" d="M 290.5,397.5 C 288.32,396.883 286.32,395.883 284.5,394.5C 285.776,393.355 287.109,393.355 288.5,394.5C 289.386,393.675 289.719,392.675 289.5,391.5C 287.5,391.5 285.5,391.5 283.5,391.5C 283.706,389.451 284.539,389.117 286,390.5C 287.11,388.963 288.61,388.297 290.5,388.5C 290.5,391.5 290.5,394.5 290.5,397.5 Z"/></g>
<g><path style="opacity:1" fill="#f9a1af" d="M 237.5,201.5 C 236.935,199.58 235.935,197.913 234.5,196.5C 233.89,195.609 233.557,194.609 233.5,193.5C 233.498,187.477 233.165,181.477 232.5,175.5C 233.222,175.918 233.722,176.584 234,177.5C 234.83,182.143 235.497,186.81 236,191.5C 236.324,189.431 237.158,189.098 238.5,190.5C 238.833,189.333 239.167,188.167 239.5,187C 238.927,184.994 238.927,183.16 239.5,181.5C 238.019,180.52 236.685,179.353 235.5,178C 236.12,175.527 236.786,173.027 237.5,170.5C 238.425,171.641 239.259,171.641 240,170.5C 240.499,174.821 240.666,179.154 240.5,183.5C 241.5,183.5 242.5,183.5 243.5,183.5C 243.5,180.833 243.5,178.167 243.5,175.5C 247.5,175.5 251.5,175.5 255.5,175.5C 255.5,180.833 255.5,186.167 255.5,191.5C 259.833,191.5 264.167,191.5 268.5,191.5C 268.823,195.226 268.489,198.893 267.5,202.5C 266.833,201.5 266.167,200.5 265.5,199.5C 264.152,201.611 264.485,203.445 266.5,205C 265.285,207.096 264.451,206.929 264,204.5C 263.517,205.448 263.351,206.448 263.5,207.5C 262.167,207.5 260.833,207.5 259.5,207.5C 259.769,210.525 258.936,213.192 257,215.5C 255.761,209.565 255.261,203.565 255.5,197.5C 251.649,196.971 248.149,197.638 245,199.5C 244.061,196.879 243.228,194.212 242.5,191.5C 241.692,193.423 241.192,195.423 241,197.5C 239.989,198.337 238.822,198.67 237.5,198.5C 237.5,199.5 237.5,200.5 237.5,201.5 Z"/></g>
<g><path style="opacity:1" fill="#f9eff5" d="M 83.5,315.5 C 75.3581,314.304 70.0248,317.638 67.5,325.5C 64.4017,325.587 64.0684,325.087 66.5,324C 62.7351,322.623 63.0684,321.623 67.5,321C 69.6734,317.661 72.3401,314.828 75.5,312.5C 76.9675,313.695 78.4675,313.695 80,312.5C 81.3638,313.371 82.5305,314.371 83.5,315.5 Z"/></g>
<g><path style="opacity:1" fill="#f0a1b5" d="M 65.5,349.5 C 65.2579,355.477 65.5913,361.477 66.5,367.5C 66.4142,368.496 66.7476,369.329 67.5,370C 65.5273,370.495 63.5273,370.662 61.5,370.5C 60.5202,357.913 60.1869,345.246 60.5,332.5C 62.1992,332.34 63.8659,332.506 65.5,333C 64.1752,338.599 64.1752,344.099 65.5,349.5 Z"/></g>
<g><path style="opacity:1" fill="#f99aaf" d="M 61.5,335.5 C 62.8271,339.951 63.4937,344.784 63.5,350C 63.5964,355.913 63.0964,361.746 62,367.5C 61.5002,356.839 61.3335,346.172 61.5,335.5 Z"/></g>
<g><path style="opacity:1" fill="#f89bb4" d="M 103.5,335.5 C 104.833,335.5 106.167,335.5 107.5,335.5C 107.294,346.511 106.794,357.511 106,368.5C 104.817,369.731 103.651,369.731 102.5,368.5C 103.478,357.552 103.811,346.552 103.5,335.5 Z"/></g>
<g><path style="opacity:1" fill="#f0a1b2" d="M 153.5,335.5 C 154.833,335.5 156.167,335.5 157.5,335.5C 159.569,340.707 161.236,346.04 162.5,351.5C 163.5,351.5 164.5,351.5 165.5,351.5C 164.774,355.307 166.107,357.974 169.5,359.5C 170.642,363.071 171.309,366.738 171.5,370.5C 169.833,370.5 168.167,370.5 166.5,370.5C 166.875,364.924 164.875,360.591 160.5,357.5C 159.671,354.185 158.838,350.852 158,347.5C 157.623,346.058 156.79,345.058 155.5,344.5C 155.167,343.833 154.833,343.167 154.5,342.5C 152.436,340.34 152.102,338.007 153.5,335.5 Z"/></g>
<g><path style="opacity:1" fill="#f8edf4" d="M 332.5,393.5 C 332.5,396.5 332.5,399.5 332.5,402.5C 331.542,402.047 330.708,401.381 330,400.5C 329.292,401.381 328.458,402.047 327.5,402.5C 327.665,398.818 327.499,395.152 327,391.5C 325.806,393.623 325.14,395.957 325,398.5C 323.624,397.295 322.458,395.962 321.5,394.5C 324.999,394.741 325.332,393.908 322.5,392C 324.613,390.296 326.113,388.463 327,386.5C 327.645,387.646 328.478,388.646 329.5,389.5C 328.801,391.612 329.301,393.612 331,395.5C 331.278,394.584 331.778,393.918 332.5,393.5 Z"/></g>
<g><path style="opacity:1" fill="#f99caf" d="M 367.5,335.5 C 368.829,340.792 369.496,346.458 369.5,352.5C 369.333,358.167 369.167,363.833 369,369.5C 367.822,359.125 366.988,348.625 366.5,338C 366.743,337.098 367.077,336.265 367.5,335.5 Z"/></g>
<g><path style="opacity:1" fill="#f89db0" d="M 363.5,267.5 C 365.116,271.651 366.449,276.318 367.5,281.5C 367.66,283.355 366.993,284.688 365.5,285.5C 365.722,282.61 365.055,279.943 363.5,277.5C 363.709,276.914 364.043,276.414 364.5,276C 362.956,275.71 361.623,275.044 360.5,274C 361.167,273.667 361.833,273.333 362.5,273C 361.207,272.51 359.873,272.343 358.5,272.5C 357.833,268.5 359.5,266.833 363.5,267.5 Z"/></g>
<g><path style="opacity:1" fill="#f9eff6" d="M 316.5,365.5 C 318.573,367.58 320.907,369.246 323.5,370.5C 323.842,371.338 324.508,371.672 325.5,371.5C 329.97,372.486 334.637,372.819 339.5,372.5C 332.737,376.233 326.071,375.733 319.5,371C 317.826,369.494 316.826,367.661 316.5,365.5 Z"/></g>
<g><path style="opacity:1" fill="#f49eb0" d="M 288.5,332.5 C 289.713,334.892 290.379,337.559 290.5,340.5C 289.713,350.152 289.379,359.818 289.5,369.5C 288.167,369.5 286.833,369.5 285.5,369.5C 285.828,357.988 285.495,346.654 284.5,335.5C 284.389,334.883 284.056,334.383 283.5,334C 285.025,332.991 286.692,332.491 288.5,332.5 Z"/></g>
<g><path style="opacity:1" fill="#f89eb1" d="M 439.5,340.5 C 440.654,346.987 440.821,353.654 440,360.5C 439,359.833 438,359.167 437,358.5C 436.222,353.416 436.389,348.416 437.5,343.5C 437.285,341.821 437.952,340.821 439.5,340.5 Z"/></g>
<g><path style="opacity:1" fill="#f89db0" d="M 318.5,360.5 C 318.5,359.833 318.5,359.167 318.5,358.5C 317.557,350.519 317.39,342.519 318,334.5C 319,333.167 320,333.167 321,334.5C 321.667,343.833 321.667,353.167 321,362.5C 320.292,361.619 319.458,360.953 318.5,360.5 Z"/></g>
<g><path style="opacity:1" fill="#f89db0" d="M 399.5,348.5 C 399.5,349.5 399.5,350.5 399.5,351.5C 398.532,353.607 398.198,355.941 398.5,358.5C 397.5,358.5 396.5,358.5 395.5,358.5C 395.768,355.881 395.435,353.381 394.5,351C 395.075,346.83 396.742,345.997 399.5,348.5 Z"/></g>
<g><path style="opacity:1" fill="#f49eb2" d="M 474.5,361.5 C 470.942,363.67 469.276,362.337 469.5,357.5C 470.234,350.947 470.567,344.28 470.5,337.5C 473.051,339.957 474.551,342.957 475,346.5C 475.663,351.537 475.496,356.537 474.5,361.5 Z"/></g>
<g><path style="opacity:1" fill="#f99db1" d="M 358.5,272.5 C 359.873,272.343 361.207,272.51 362.5,273C 361.833,273.333 361.167,273.667 360.5,274C 361.623,275.044 362.956,275.71 364.5,276C 364.043,276.414 363.709,276.914 363.5,277.5C 365.055,279.943 365.722,282.61 365.5,285.5C 362.866,287.519 363.033,289.519 366,291.5C 366.667,293.167 366.667,294.833 366,296.5C 363.646,296.108 361.146,296.108 358.5,296.5C 358.5,291.5 358.5,286.5 358.5,281.5C 350.525,281.599 349.858,279.933 356.5,276.5C 357.362,275.234 358.029,273.901 358.5,272.5 Z"/></g>
<g><path style="opacity:1" fill="#f7f8f7" d="M 314.5,252.5 C 314.833,252.5 315.167,252.5 315.5,252.5C 316.784,259.879 316.618,267.212 315,274.5C 314,274.167 313,273.833 312,273.5C 311.589,268.481 311.089,263.481 310.5,258.5C 311.072,255.915 311.239,253.249 311,250.5C 311.333,250.167 311.667,249.833 312,249.5C 312.852,250.571 313.685,251.571 314.5,252.5 Z"/></g>
<g><path style="opacity:1" fill="#f9f0f4" d="M 231.5,233.5 C 231.725,240.384 229.891,247.05 226,253.5C 224.729,254.883 223.229,255.883 221.5,256.5C 222.268,252.298 224.101,248.631 227,245.5C 228.145,242.568 228.978,239.568 229.5,236.5C 230.167,235.5 230.833,234.5 231.5,233.5 Z"/></g>
<g><path style="opacity:1" fill="#f9f1f5" d="M 310.5,240.5 C 310.833,240.5 311.167,240.5 311.5,240.5C 311.5,240.833 311.5,241.167 311.5,241.5C 312.703,245.11 313.703,248.777 314.5,252.5C 313.685,251.571 312.852,250.571 312,249.5C 311.667,249.833 311.333,250.167 311,250.5C 311.239,253.249 311.072,255.915 310.5,258.5C 310.167,258.5 309.833,258.5 309.5,258.5C 307.203,253.23 304.869,247.897 302.5,242.5C 302.5,241.833 302.5,241.167 302.5,240.5C 303.15,240.196 303.817,239.863 304.5,239.5C 305.305,243.141 306.805,246.474 309,249.5C 310.289,246.649 310.789,243.649 310.5,240.5 Z"/></g>
<g><path style="opacity:1" fill="#faeef2" d="M 377.5,334.5 C 376.77,335.712 375.77,336.712 374.5,337.5C 374.709,338.086 375.043,338.586 375.5,339C 374.422,339.674 373.755,340.674 373.5,342C 374.479,345.102 375.145,348.269 375.5,351.5C 374.601,356.15 374.434,360.817 375,365.5C 376.045,366.373 376.878,367.373 377.5,368.5C 375.708,368.634 374.042,368.301 372.5,367.5C 372.333,356.828 372.5,346.161 373,335.5C 374.356,334.62 375.856,334.286 377.5,334.5 Z"/></g>
<g><path style="opacity:1" fill="#f7f8f3" d="M 253.5,285.5 C 254.593,292.484 255.593,299.484 256.5,306.5C 256.657,307.873 256.49,309.207 256,310.5C 254.634,308.63 253.467,306.63 252.5,304.5C 252.723,303.033 253.056,301.533 253.5,300C 251.642,296.335 249.642,292.835 247.5,289.5C 247.34,287.847 246.674,286.514 245.5,285.5C 245.5,285.167 245.5,284.833 245.5,284.5C 243.447,276.72 245.113,275.72 250.5,281.5C 251.086,281.291 251.586,280.957 252,280.5C 252.198,282.382 252.698,284.048 253.5,285.5 Z"/></g>
<g><path style="opacity:1" fill="#f8f7f8" d="M 253.5,285.5 C 252.698,284.048 252.198,282.382 252,280.5C 251.586,280.957 251.086,281.291 250.5,281.5C 245.113,275.72 243.447,276.72 245.5,284.5C 244.868,282.257 243.534,280.591 241.5,279.5C 240.888,275.837 240.721,272.17 241,268.5C 243.241,272.994 246.408,276.661 250.5,279.5C 251.429,278.311 251.762,276.978 251.5,275.5C 251.5,274.833 251.5,274.167 251.5,273.5C 252.167,272.833 252.833,272.167 253.5,271.5C 253.5,276.167 253.5,280.833 253.5,285.5 Z"/></g>
<g><path style="opacity:1" fill="#f9edf1" d="M 329.5,366.5 C 327.938,366.267 326.605,365.6 325.5,364.5C 324.596,363.791 324.263,362.791 324.5,361.5C 324.5,351.5 324.5,341.5 324.5,331.5C 321.5,331.5 318.5,331.5 315.5,331.5C 317.048,330.206 319.048,329.539 321.5,329.5C 323.5,329.667 325.5,329.833 327.5,330C 327.359,332.616 327.359,335.283 327.5,338C 327.241,339.261 326.574,340.261 325.5,341C 325.942,344.687 325.942,348.52 325.5,352.5C 325.25,357.712 326.583,362.378 329.5,366.5 Z"/></g>
<g><path style="opacity:1" fill="#f8f7f8" d="M 377.5,334.5 C 380.237,334.401 382.904,334.735 385.5,335.5C 386.721,336.028 387.887,336.695 389,337.5C 393.494,346.421 393.661,355.421 389.5,364.5C 388.33,366.279 386.664,367.279 384.5,367.5C 382.097,367.448 379.764,367.781 377.5,368.5C 376.878,367.373 376.045,366.373 375,365.5C 374.434,360.817 374.601,356.15 375.5,351.5C 375.145,348.269 374.479,345.102 373.5,342C 373.755,340.674 374.422,339.674 375.5,339C 375.043,338.586 374.709,338.086 374.5,337.5C 375.77,336.712 376.77,335.712 377.5,334.5 Z"/></g>
<g><path style="opacity:1" fill="#f8f6f8" d="M 460.5,335.5 C 461.382,337.084 462.215,338.751 463,340.5C 463.333,340.167 463.667,339.833 464,339.5C 464.708,340.381 465.542,341.047 466.5,341.5C 466.833,342.5 467.5,343.167 468.5,343.5C 469.441,348.07 469.774,352.737 469.5,357.5C 468.833,357.5 468.5,357.833 468.5,358.5C 467.833,359.5 467.167,360.5 466.5,361.5C 465.292,362.234 463.959,362.567 462.5,362.5C 462.769,364.429 462.269,366.095 461,367.5C 459.224,366.464 457.391,366.464 455.5,367.5C 455.721,366.265 456.388,365.265 457.5,364.5C 453.906,364.038 450.573,362.372 447.5,359.5C 452.536,357.999 452.536,356.166 447.5,354C 448.308,352.294 449.641,351.461 451.5,351.5C 451.577,347.785 451.244,344.119 450.5,340.5C 451.552,340.649 452.552,340.483 453.5,340C 451.866,339.506 450.199,339.34 448.5,339.5C 448.66,341.199 448.494,342.866 448,344.5C 447.333,343.167 446.667,343.167 446,344.5C 445.654,346.218 445.154,347.885 444.5,349.5C 445.33,353.469 445.996,357.469 446.5,361.5C 445.833,361.167 445.167,360.833 444.5,360.5C 444.5,360.167 444.5,359.833 444.5,359.5C 443.725,354.203 443.392,348.87 443.5,343.5C 445.27,341.546 446.603,339.213 447.5,336.5C 450.28,336.548 452.78,335.881 455,334.5C 456.766,335.233 458.599,335.567 460.5,335.5 Z"/></g>
<g><path style="opacity:1" fill="#f2f9f9" d="M 455.5,367.5 C 453.518,367.005 451.518,366.505 449.5,366C 448.601,364.348 447.601,362.848 446.5,361.5C 445.996,357.469 445.33,353.469 444.5,349.5C 445.154,347.885 445.654,346.218 446,344.5C 446.667,343.167 447.333,343.167 448,344.5C 448.494,342.866 448.66,341.199 448.5,339.5C 450.199,339.34 451.866,339.506 453.5,340C 452.552,340.483 451.552,340.649 450.5,340.5C 451.244,344.119 451.577,347.785 451.5,351.5C 449.641,351.461 448.308,352.294 447.5,354C 452.536,356.166 452.536,357.999 447.5,359.5C 450.573,362.372 453.906,364.038 457.5,364.5C 456.388,365.265 455.721,366.265 455.5,367.5 Z"/></g>
<g><path style="opacity:1" fill="#f7ecf2" d="M 390.5,392.5 C 390.352,394.934 390.186,397.601 390,400.5C 384.825,402.65 382.492,400.983 383,395.5C 384.78,394.406 386.614,393.406 388.5,392.5C 381.495,391.523 379.162,394.523 381.5,401.5C 380.504,401.414 379.671,401.748 379,402.5C 378.383,401.551 378.549,400.718 379.5,400C 376.986,398.748 374.32,398.248 371.5,398.5C 371.5,400.167 371.5,401.833 371.5,403.5C 370.209,403.737 369.209,403.404 368.5,402.5C 370.256,401.448 370.923,399.781 370.5,397.5C 377.167,397.167 377.167,396.833 370.5,396.5C 370.5,395.5 370.5,394.5 370.5,393.5C 372.604,393.799 374.604,393.466 376.5,392.5C 373.914,391.52 371.247,391.187 368.5,391.5C 368.238,390.022 368.571,388.689 369.5,387.5C 371.13,388.898 372.964,389.898 375,390.5C 376.645,390.307 378.479,390.14 380.5,390C 379.66,388.334 380.16,388.167 382,389.5C 382.739,388.426 383.739,387.759 385,387.5C 387.363,388.702 389.197,390.368 390.5,392.5 Z"/></g>
<g><path style="opacity:1" fill="#f7ebf1" d="M 160.5,391.5 C 159.624,391.369 158.957,391.702 158.5,392.5C 160.668,395.498 161.668,398.831 161.5,402.5C 162.5,402.5 163.5,402.5 164.5,402.5C 163.432,403.434 162.099,403.768 160.5,403.5C 160.736,400.774 159.903,398.441 158,396.5C 157,397.833 156,397.833 155,396.5C 154.536,397.094 154.369,397.761 154.5,398.5C 154.167,398.5 153.833,398.5 153.5,398.5C 155.06,392.723 152.727,390.39 146.5,391.5C 145.833,391.5 145.5,391.833 145.5,392.5C 144.521,395.625 144.187,398.958 144.5,402.5C 142.361,398.751 142.027,394.751 143.5,390.5C 149.499,390.68 155.166,391.013 160.5,391.5 Z"/></g>
<g><path style="opacity:1" fill="#f8ecf2" d="M 321.5,392.5 C 320.417,392.461 319.417,392.127 318.5,391.5C 318.167,393.333 317.833,395.167 317.5,397C 317.547,399.295 318.213,401.129 319.5,402.5C 317.393,403.468 315.059,403.802 312.5,403.5C 313.438,401.244 313.438,398.91 312.5,396.5C 308.743,396.286 308.076,397.286 310.5,399.5C 308.5,400.833 306.5,400.833 304.5,399.5C 303.34,394.334 305.34,392.668 310.5,394.5C 311.571,392.376 310.737,391.376 308,391.5C 305.774,392.033 303.607,392.7 301.5,393.5C 301.238,392.022 301.571,390.689 302.5,389.5C 303.192,390.025 303.692,390.692 304,391.5C 305.194,390.57 306.527,389.903 308,389.5C 310.898,390.563 313.398,392.23 315.5,394.5C 316.59,393.609 316.59,392.609 315.5,391.5C 318.43,386.093 320.43,386.426 321.5,392.5 Z"/></g>
<g><path style="opacity:1" fill="#f8edf2" d="M 403.5,391.5 C 401.5,391.5 399.5,391.5 397.5,391.5C 397.5,394.833 397.5,398.167 397.5,401.5C 394.402,401.413 394.068,401.913 396.5,403C 396,403.5 395.5,404 395,404.5C 393.644,403.62 392.144,403.286 390.5,403.5C 394.064,400.136 394.398,396.469 391.5,392.5C 392.931,392.881 393.764,393.881 394,395.5C 395.887,393.974 396.887,391.974 397,389.5C 397.739,388.426 398.739,387.759 400,387.5C 400.468,388.842 401.634,390.176 403.5,391.5 Z"/></g>
<g><path style="opacity:1" fill="#f7ecf2" d="M 433.5,391.5 C 433.5,395.167 433.5,398.833 433.5,402.5C 430.006,403.119 426.506,403.786 423,404.5C 422.055,404.095 421.388,403.428 421,402.5C 418.79,403.749 416.624,403.582 414.5,402C 418.354,398.255 420.354,393.755 420.5,388.5C 422.226,388.185 423.893,388.019 425.5,388C 426.834,390.66 427.668,393.494 428,396.5C 428.974,394.122 429.641,394.456 430,397.5C 430.252,395.622 430.919,393.622 432,391.5C 432.69,390.262 433.19,390.262 433.5,391.5 Z"/></g>
<g><path style="opacity:1" fill="#f7ebf1" d="M 269.5,391.5 C 269.5,395.167 269.5,398.833 269.5,402.5C 272.167,402.5 274.833,402.5 277.5,402.5C 272.878,402.904 268.378,403.904 264,405.5C 262.378,404.901 260.878,404.234 259.5,403.5C 261.404,403.262 262.738,402.262 263.5,400.5C 265.75,392.771 262.75,389.771 254.5,391.5C 253.532,393.607 253.198,395.941 253.5,398.5C 251.082,395.665 251.082,392.831 253.5,390C 258.786,390.443 264.119,390.943 269.5,391.5 Z"/></g>
<g><path style="opacity:1" fill="#f7eff3" d="M 283.5,391.5 C 280.769,394.247 281.102,396.58 284.5,398.5C 284.918,399.222 285.584,399.722 286.5,400C 285.101,400.595 283.768,400.428 282.5,399.5C 281.224,400.614 281.224,401.614 282.5,402.5C 283.167,402.5 283.5,402.833 283.5,403.5C 281.5,403.167 279.5,402.833 277.5,402.5C 275.393,401.532 273.059,401.198 270.5,401.5C 270.351,400.448 270.517,399.448 271,398.5C 273.283,398.03 274.783,397.363 275.5,396.5C 275.082,395.778 274.416,395.278 273.5,395C 274.416,394.722 275.082,394.222 275.5,393.5C 276.492,393.672 277.158,393.338 277.5,392.5C 279.044,392.297 280.378,391.63 281.5,390.5C 282.183,390.863 282.85,391.196 283.5,391.5 Z"/></g>
<g><path style="opacity:1" fill="#f8ebf1" d="M 216.5,393.5 C 222.662,393.45 224.329,395.95 221.5,401C 215.593,401.746 213.927,399.246 216.5,393.5 Z"/></g>
<g><path style="opacity:1" fill="#f6ebf0" d="M 269.5,391.5 C 269.5,395.167 269.5,398.833 269.5,402.5C 272.167,402.5 274.833,402.5 277.5,402.5C 272.878,402.904 268.378,403.904 264,405.5C 262.378,404.901 260.878,404.234 259.5,403.5C 261.404,403.262 262.738,402.262 263.5,400.5C 265.75,392.771 262.75,389.771 254.5,391.5C 253.532,393.607 253.198,395.941 253.5,398.5C 253.5,400.167 253.5,401.833 253.5,403.5C 255.5,403.5 257.5,403.5 259.5,403.5C 257.5,403.5 255.5,403.5 253.5,403.5C 253.5,401.833 253.5,400.167 253.5,398.5C 253.198,395.941 253.532,393.607 254.5,391.5C 254.5,395.167 254.5,398.833 254.5,402.5C 256.527,402.662 258.527,402.495 260.5,402C 258.866,401.506 257.199,401.34 255.5,401.5C 255.5,398.833 255.5,396.167 255.5,393.5C 257.415,393.216 259.081,393.549 260.5,394.5C 261.968,395.779 262.635,397.446 262.5,399.5C 257.584,401.593 255.584,399.926 256.5,394.5C 257.833,394.5 259.167,394.5 260.5,394.5C 259.167,394.5 257.833,394.5 256.5,394.5C 255.584,399.926 257.584,401.593 262.5,399.5C 262.5,400.167 262.833,400.5 263.5,400.5C 262.738,402.262 261.404,403.262 259.5,403.5C 257.5,403.5 255.5,403.5 253.5,403.5C 253.5,401.833 253.5,400.167 253.5,398.5C 253.198,395.941 253.532,393.607 254.5,391.5C 262.75,389.771 265.75,392.771 263.5,400.5C 262.833,400.5 262.5,400.167 262.5,399.5C 262.635,397.446 261.968,395.779 260.5,394.5C 259.081,393.549 257.415,393.216 255.5,393.5C 255.5,396.167 255.5,398.833 255.5,401.5C 257.199,401.34 258.866,401.506 260.5,402C 258.527,402.495 256.527,402.662 254.5,402.5C 254.5,398.833 254.5,395.167 254.5,391.5C 262.75,389.771 265.75,392.771 263.5,400.5C 262.738,402.262 261.404,403.262 259.5,403.5C 261.404,403.262 262.738,402.262 263.5,400.5C 265.75,392.771 262.75,389.771 254.5,391.5C 253.532,393.607 253.198,395.941 253.5,398.5C 251.082,395.665 251.082,392.831 253.5,390C 258.786,390.443 264.119,390.943 269.5,391.5 Z"/></g>
<g><path style="opacity:1" fill="#f8ebf1" d="M 354.5,392.5 C 356.394,393.048 358.06,394.048 359.5,395.5C 356.869,397.005 357.203,397.671 360.5,397.5C 360.669,402.041 360.002,402.374 358.5,398.5C 357.956,399.89 356.956,401.556 355.5,403.5C 354.817,403.137 354.15,402.804 353.5,402.5C 356.961,399.516 357.294,396.183 354.5,392.5 Z"/></g>
<g><path style="opacity:1" fill="#f6eaf0" d="M 348.5,393.5 C 353.486,393.305 355.152,395.472 353.5,400C 351.655,401.128 349.655,401.628 347.5,401.5C 347.401,398.763 347.735,396.096 348.5,393.5 Z"/></g>
<g><path style="opacity:1" fill="#f9e2ed" d="M 79.5,393.5 C 80.9778,393.238 82.3112,393.571 83.5,394.5C 82.6798,396.111 81.3464,396.778 79.5,396.5C 79.5,395.5 79.5,394.5 79.5,393.5 Z"/></g>
<g><path style="opacity:1" fill="#f8ebf1" d="M 86.5,392.5 C 86.5,393.5 86.5,394.5 86.5,395.5C 84.8357,396.999 82.8357,397.999 80.5,398.5C 79.6143,399.325 79.281,400.325 79.5,401.5C 80.8734,401.657 82.2068,401.49 83.5,401C 84.0779,399.583 85.0779,398.75 86.5,398.5C 87.7652,400.357 87.4318,402.024 85.5,403.5C 82.8333,403.5 80.1667,403.5 77.5,403.5C 77.5,399.5 77.5,395.5 77.5,391.5C 80.5701,391.368 83.5701,391.701 86.5,392.5 Z"/></g>
<g><path style="opacity:1" fill="#f9edf3" d="M 91.5,391.5 C 90.5044,395.554 90.8377,399.554 92.5,403.5C 90.302,404.067 87.9686,404.067 85.5,403.5C 87.4318,402.024 87.7652,400.357 86.5,398.5C 86.5,397.5 86.5,396.5 86.5,395.5C 86.5,394.5 86.5,393.5 86.5,392.5C 88.083,392.566 89.7497,392.233 91.5,391.5 Z"/></g>
<g><path style="opacity:1" fill="#f9ecf3" d="M 260.5,394.5 C 261.968,395.779 262.635,397.446 262.5,399.5C 257.584,401.593 255.584,399.926 256.5,394.5C 257.833,394.5 259.167,394.5 260.5,394.5 Z"/></g>
<g><path style="opacity:1" fill="#faedf4" d="M 101.5,391.5 C 99.78,393.658 98.9467,396.325 99,399.5C 97.3333,400.833 95.6667,400.833 94,399.5C 93.8171,396.635 93.3171,393.969 92.5,391.5C 93.5659,390.308 94.3992,390.641 95,392.5C 95.4534,401.57 96.6201,401.57 98.5,392.5C 97.0198,389.953 97.6865,388.786 100.5,389C 101.252,389.671 101.586,390.504 101.5,391.5 Z"/></g>
<g><path style="opacity:1" fill="#f6ebf0" d="M 134.5,393.5 C 133.737,394.268 132.737,394.768 131.5,395C 132.291,397.75 132.291,400.583 131.5,403.5C 130.167,403.5 128.833,403.5 127.5,403.5C 127.183,399.11 125.85,394.777 123.5,390.5C 124.833,390.5 126.167,390.5 127.5,390.5C 127.5,389.5 127.5,388.5 127.5,387.5C 130.062,388.722 132.396,389.722 134.5,390.5C 135.776,391.614 135.776,392.614 134.5,393.5 Z"/></g>
<g><path style="opacity:1" fill="#f7e6ee" d="M 207.5,392.5 C 206.681,394.772 206.015,397.106 205.5,399.5C 204.17,396.906 202.837,394.239 201.5,391.5C 199.804,393.546 198.471,395.879 197.5,398.5C 196.117,396.68 195.117,394.68 194.5,392.5C 196.731,392.927 198.898,392.261 201,390.5C 203.226,391.033 205.393,391.7 207.5,392.5 Z"/></g>
<g><path style="opacity:1" fill="#f4edf0" d="M 225.5,394.5 C 226.222,394.918 226.722,395.584 227,396.5C 227.333,396.167 227.667,395.833 228,395.5C 228.72,397.112 228.554,398.612 227.5,400C 231.573,399.767 235.573,399.934 239.5,400.5C 239.5,401.5 239.5,402.5 239.5,403.5C 237.508,403.672 235.842,403.005 234.5,401.5C 234.089,402.262 233.923,403.262 234,404.5C 230.45,402.724 226.616,402.391 222.5,403.5C 224.871,401.003 225.871,398.003 225.5,394.5 Z"/></g>
<g><path style="opacity:1" fill="#f5e5ec" d="M 339.5,397.5 C 338.081,396.549 336.415,396.216 334.5,396.5C 334.5,395.5 334.5,394.5 334.5,393.5C 335.675,393.719 336.675,393.386 337.5,392.5C 335.955,391.548 334.288,391.215 332.5,391.5C 334.035,387.587 336.369,386.92 339.5,389.5C 340.489,390.468 341.156,391.635 341.5,393C 340.886,394.537 340.886,395.87 341.5,397C 340.906,397.464 340.239,397.631 339.5,397.5 Z"/></g>
<g><path style="opacity:1" fill="#f3e7ed" d="M 339.5,397.5 C 340.445,398.993 341.445,400.493 342.5,402C 342.164,403.03 341.497,403.53 340.5,403.5C 339.448,401.744 337.781,401.077 335.5,401.5C 335.5,400.167 335.5,398.833 335.5,397.5C 336.833,397.5 338.167,397.5 339.5,397.5 Z"/></g>
<g><path style="opacity:1" fill="#f6edf0" d="M 406.5,393.5 C 410.536,394.441 411.203,396.275 408.5,399C 409.167,399.333 409.833,399.667 410.5,400C 409.167,400.667 409.167,401.333 410.5,402C 408.517,403.707 406.517,403.874 404.5,402.5C 405.376,402.631 406.043,402.298 406.5,401.5C 405.833,400.5 405.167,399.5 404.5,398.5C 405.95,397.15 406.617,395.484 406.5,393.5 Z"/></g>
<g><path style="opacity:1" fill="#f5ecf0" d="M 354.5,392.5 C 357.294,396.183 356.961,399.516 353.5,402.5C 351.105,403.814 348.605,403.814 346,402.5C 345.501,398.848 345.335,395.182 345.5,391.5C 348.713,391.19 351.713,391.523 354.5,392.5 Z"/></g>
<g><path style="opacity:1" fill="#f2d8e3" d="M 86.5,395.5 C 86.5,396.5 86.5,397.5 86.5,398.5C 85.0779,398.75 84.0779,399.583 83.5,401C 82.2068,401.49 80.8734,401.657 79.5,401.5C 79.281,400.325 79.6143,399.325 80.5,398.5C 82.8357,397.999 84.8357,396.999 86.5,395.5 Z"/></g>
<g><path style="opacity:1" fill="#f9edf3" d="M 145.5,392.5 C 145.5,395.833 145.5,399.167 145.5,402.5C 148.167,402.5 150.833,402.5 153.5,402.5C 150.5,403.833 147.5,403.833 144.5,402.5C 144.187,398.958 144.521,395.625 145.5,392.5 Z"/></g>
<g><path style="opacity:1" fill="#f7eff2" d="M 164.5,400.5 C 165.2,397.937 166.2,395.437 167.5,393C 167.167,392.5 166.833,392 166.5,391.5C 165.147,392.685 163.98,394.019 163,395.5C 161.519,394.529 160.685,393.196 160.5,391.5C 163.565,391.759 166.065,390.759 168,388.5C 169.617,389.536 169.784,390.703 168.5,392C 169.715,394.096 170.549,393.929 171,391.5C 170.839,395.837 169.506,399.837 167,403.5C 166.667,402.167 166.333,400.833 166,399.5C 165.617,400.056 165.117,400.389 164.5,400.5 Z"/></g>
<g><path style="opacity:1" fill="#f6dfeb" d="M 399.5,393.5 C 401.167,393.5 402.833,393.5 404.5,393.5C 404.5,394.5 404.5,395.5 404.5,396.5C 402.833,396.5 401.167,396.5 399.5,396.5C 399.5,395.5 399.5,394.5 399.5,393.5 Z"/></g>
<g><path style="opacity:1" fill="#f2d9e2" d="M 275.5,393.5 C 275.082,394.222 274.416,394.722 273.5,395C 274.416,395.278 275.082,395.778 275.5,396.5C 273.833,396.5 272.167,396.5 270.5,396.5C 270.5,395.167 270.5,393.833 270.5,392.5C 272.292,392.366 273.958,392.699 275.5,393.5 Z"/></g>
<g><path style="opacity:1" fill="#efcedc" d="M 425.5,394.5 C 426.345,395.671 427.011,397.005 427.5,398.5C 425.5,398.833 423.5,399.167 421.5,399.5C 421.176,396.306 422.342,395.306 425,396.5C 425.464,395.906 425.631,395.239 425.5,394.5 Z"/></g>
<g><path style="opacity:1" fill="#efdbe3" d="M 284.5,398.5 C 285.978,398.238 287.311,398.571 288.5,399.5C 288.333,399.833 288.167,400.167 288,400.5C 286.052,401.109 284.218,401.776 282.5,402.5C 281.224,401.614 281.224,400.614 282.5,399.5C 283.768,400.428 285.101,400.595 286.5,400C 285.584,399.722 284.918,399.222 284.5,398.5 Z"/></g>
<g><path style="opacity:1" fill="#f5ebef" d="M 108.5,402.5 C 108.5,401.5 108.5,400.5 108.5,399.5C 108.5,397.167 108.5,394.833 108.5,392.5C 109.521,402.564 111.521,402.897 114.5,393.5C 114.5,396.5 114.5,399.5 114.5,402.5C 116.857,402.663 119.19,402.497 121.5,402C 119.866,401.506 118.199,401.34 116.5,401.5C 117.069,397.671 116.402,394.337 114.5,391.5C 114.351,390.448 114.517,389.448 115,388.5C 116.385,389.551 117.385,390.884 118,392.5C 118.333,391.833 118.667,391.167 119,390.5C 119.27,393.224 119.77,395.891 120.5,398.5C 124.712,398.806 125.378,400.306 122.5,403C 121,403.167 119.5,403.333 118,403.5C 116.019,403.371 114.353,402.704 113,401.5C 112.667,402.5 112.333,403.5 112,404.5C 110.887,403.695 109.721,403.028 108.5,402.5 Z"/></g>
<g><path style="opacity:1" fill="#f7e6ee" d="M 327.5,402.5 C 326.903,403.139 326.07,403.472 325,403.5C 323.061,403.046 321.228,402.379 319.5,401.5C 319.34,399.801 319.506,398.134 320,396.5C 322.12,399.136 324.62,401.136 327.5,402.5 Z"/></g>
<g><path style="opacity:1" fill="#f2e4e9" d="M 447.5,391.5 C 446.5,391.5 445.5,391.5 444.5,391.5C 444.5,395.167 444.5,398.833 444.5,402.5C 447.187,402.664 449.854,402.497 452.5,402C 450.618,401.802 448.952,401.302 447.5,400.5C 450.073,400.148 452.406,400.648 454.5,402C 451.982,403.149 449.316,403.982 446.5,404.5C 442.033,403.886 437.7,403.22 433.5,402.5C 435.527,402.662 437.527,402.495 439.5,402C 437.866,401.506 436.199,401.34 434.5,401.5C 434.5,398.167 434.5,394.833 434.5,391.5C 435.166,394.028 435.832,396.694 436.5,399.5C 438.326,399.08 440.326,399.08 442.5,399.5C 442.231,396.365 442.231,393.532 442.5,391C 444.696,389.392 446.362,389.559 447.5,391.5 Z"/></g>
<g><path style="opacity:1" fill="#f9e8ef" d="M 249.5,356.5 C 251.693,357.68 254.026,358.68 256.5,359.5C 257.466,361.396 257.799,363.396 257.5,365.5C 257.5,366.833 256.833,367.5 255.5,367.5C 255.5,365.167 255.5,362.833 255.5,360.5C 253.146,360.162 250.813,359.662 248.5,359C 250.619,358.658 250.953,357.825 249.5,356.5 Z"/></g>
<g><path style="opacity:1" fill="#f6e1e2" d="M 200.5,352.5 C 202.587,353.585 203.92,355.251 204.5,357.5C 202.413,356.415 201.08,354.749 200.5,352.5 Z"/></g>
<g><path style="opacity:1" fill="#f7f8f7" d="M 151.5,347.5 C 155.625,348.378 156.125,350.045 153,352.5C 151.731,351.095 151.231,349.429 151.5,347.5 Z"/></g>
<g><path style="opacity:1" fill="#f8eaf0" d="M 81.5,346.5 C 84.8508,349.139 85.1842,352.306 82.5,356C 80.0797,356.687 77.913,356.187 76,354.5C 75.3311,357.028 74.4978,357.028 73.5,354.5C 71.9547,353.548 70.288,353.215 68.5,353.5C 68.7166,358.23 68.3833,362.897 67.5,367.5C 67.1667,367.5 66.8333,367.5 66.5,367.5C 66.1795,362.305 66.5128,357.305 67.5,352.5C 72.1532,351.999 76.4865,352.666 80.5,354.5C 81.4731,352.052 81.8064,349.385 81.5,346.5 Z"/></g>
<g><path style="opacity:1" fill="#f9eaee" d="M 154.5,342.5 C 154.833,343.167 155.167,343.833 155.5,344.5C 156.758,347.694 157.424,351.027 157.5,354.5C 154.5,354.5 151.5,354.5 148.5,354.5C 148.517,352.435 148.85,350.435 149.5,348.5C 150.793,347.158 151.626,345.491 152,343.5C 152.671,342.748 153.504,342.414 154.5,342.5 Z"/></g>
</svg>
